PathFileType	4	(X/Y/Z)	Run_200 02
DataRate	CameraRate	NumFrames	NumMarkers	Units	OrigDataRate	OrigDataStartFrame	OrigNumFrames
120	120	4	41	mm	120	245	125
Frame#	Time	LASI			RASI			LPSI			RPSI			RTH1			RTH3			LTH1			LTH2			LTH3			RTB1			RTB2			RTB3			LTB1			LTB2			LTB3			RCAL			RTOE			RMT5			LCAL			LTOE			LMT5			LACR			RACR			CLAV			C7			RUA1			RUA2			RUA3			RLEL			RMEL			LUA1			LUA2			LUA3			LLEL			LMEL			RFAsuperior			RFAradius			RFAulna			LFAsuperior			LFAradius			LFAulna		
		X1	Y1	Z1	X2	Y2	Z2	X3	Y3	Z3	X4	Y4	Z4	X5	Y5	Z5	X6	Y6	Z6	X7	Y7	Z7	X8	Y8	Z8	X9	Y9	Z9	X10	Y10	Z10	X11	Y11	Z11	X12	Y12	Z12	X13	Y13	Z13	X14	Y14	Z14	X15	Y15	Z15	X16	Y16	Z16	X17	Y17	Z17	X18	Y18	Z18	X19	Y19	Z19	X20	Y20	Z20	X21	Y21	Z21	X22	Y22	Z22	X23	Y23	Z23	X24	Y24	Z24	X25	Y25	Z25	X26	Y26	Z26	X27	Y27	Z27	X28	Y28	Z28	X29	Y29	Z29	X30	Y30	Z30	X31	Y31	Z31	X32	Y32	Z32	X33	Y33	Z33	X34	Y34	Z34	X35	Y35	Z35	X36	Y36	Z36	X37	Y37	Z37	X38	Y38	Z38	X39	Y39	Z39	X40	Y40	Z40	X41	Y41	Z41	

245	  2.041667	882.655570	999.380365	-382.536410	897.237525	982.824380	-151.786452	724.256787	1023.047276	-310.760338	726.659142	1019.103763	-213.753055	844.223534	817.530722	-91.025109	851.846381	559.849723	-113.542657	872.083659	813.291112	-436.435458	949.967311	719.827341	-406.588699	907.854207	598.505997	-371.702172	764.334281	373.385088	-162.575029	693.971050	384.452976	-99.354162	646.821808	335.331183	-160.954950	962.031507	385.846427	-274.743356	919.699800	311.970691	-347.032775	919.055994	221.639329	-267.421684	462.902581	365.904675	-156.296982	512.262285	162.523295	-183.995753	480.650035	174.131833	-92.864912	794.147520	106.214628	-267.081063	997.127539	 79.139841	-232.224256	987.678061	 64.455280	-323.293335	845.572927	1452.568570	-459.291880	873.081503	1448.465116	-71.789786	923.412104	1439.207930	-250.685793	800.925086	1501.815742	-275.958276	815.346289	1317.670208	-18.834022	740.553932	1321.304267	-24.961957	774.336141	1243.825134	  9.382233	738.224309	1184.110656	 33.645059	696.784119	1167.598657	-37.058009	752.258148	1344.606437	-514.241648	677.894496	1324.235595	-494.313347	720.862178	1260.787131	-523.422787	650.230928	1208.626161	-540.023342	620.273510	1218.968042	-459.238894	837.778215	1114.826785	 -4.991472	913.800954	1060.947838	-84.428589	889.373501	1007.086677	-45.367293	745.421467	1122.713374	-516.400235	841.602254	1094.151423	-438.089448	817.107232	1040.386480	-473.576357	
246	  2.050000	879.228026	994.255369	-382.074359	895.162898	974.485459	-151.854885	720.497247	1016.867765	-309.373979	723.709876	1009.562771	-212.579696	846.628957	810.062876	-92.094531	861.062761	554.982645	-113.220217	870.654245	810.544835	-437.755178	947.677917	716.840532	-407.861461	907.695389	595.217643	-373.112671	775.660569	372.113629	-162.887806	705.334800	382.494585	-99.367232	657.042672	334.589302	-159.907052	956.061190	383.570775	-274.150818	914.030660	310.705380	-347.415141	908.414768	220.498512	-267.370241	473.906033	368.790283	-157.761514	520.495579	163.933476	-179.880110	489.864020	178.654336	-88.967679	778.189615	106.832105	-266.931061	981.119508	 78.075119	-232.255987	971.491481	 63.895589	-323.584706	847.834305	1443.886485	-461.319071	870.272863	1440.775325	-71.212903	923.899312	1432.293214	-250.593870	801.975537	1496.294744	-277.428094	810.301400	1309.913327	-19.604139	735.446024	1313.581592	-26.675440	767.759619	1235.957069	  7.695564	730.855588	1177.201405	 31.680924	690.413585	1160.984258	-39.465254	756.834230	1332.114972	-516.206998	681.831047	1311.102392	-498.721319	726.479599	1247.827483	-525.212388	656.847047	1195.341721	-542.931102	624.661988	1205.575113	-462.770086	828.782425	1103.671874	 -3.554348	904.241479	1045.517626	-80.657386	877.208598	993.549192	-40.742032	752.987840	1111.098430	-517.505469	848.783983	1086.253680	-439.246786	825.464449	1030.745442	-473.101025	
247	  2.058333	876.144161	990.357962	-381.020013	892.866207	967.800395	-151.507122	717.118285	1011.952267	-307.494898	720.399325	1001.645826	-210.809904	848.663218	804.205328	-93.054440	870.651201	551.335211	-112.844853	868.500929	807.593681	-438.691501	944.811614	714.588889	-409.148729	906.480550	591.696601	-375.033159	787.553645	371.517421	-163.530407	717.238593	380.944199	-99.652537	668.233611	333.942992	-159.899200	948.668622	380.666692	-275.064236	905.699405	308.800671	-348.612248	897.371539	218.903431	-267.934521	485.292088	370.639861	-159.235453	530.508265	164.911107	-176.240393	501.097307	182.343214	-85.518192	762.080733	107.282287	-267.077137	964.969356	 77.244226	-232.634892	955.117973	 63.149989	-324.135768	849.876652	1435.861853	-463.240021	867.362875	1433.780034	-70.867849	924.229214	1426.132896	-250.409033	803.134702	1491.526039	-278.743068	805.137957	1303.219489	-20.480241	730.221337	1306.565569	-28.749391	761.129880	1229.170827	  6.318092	723.417131	1170.900213	 29.612426	683.435762	1155.101724	-41.853156	761.990646	1319.868531	-517.601150	686.174303	1297.798989	-503.331409	732.681745	1235.078804	-526.938155	664.369968	1181.904836	-545.872302	629.781768	1192.086055	-466.437634	819.273435	1092.882433	 -2.012610	893.951714	1030.343778	-76.213450	863.945156	980.412497	-35.864245	761.502208	1099.674036	-518.349593	856.585987	1078.707654	-439.860332	834.663608	1021.478810	-472.235592	
248	  2.066667	873.542733	987.594794	-379.982743	890.365270	963.234125	-151.134463	714.231929	1008.178714	-305.635480	717.011480	995.971996	-208.964970	850.005624	799.702655	-93.811556	880.543244	548.779413	-112.441136	865.357189	804.389286	-439.391711	941.464863	712.332960	-410.677755	903.412676	588.013687	-376.895850	799.833992	371.431307	-164.465417	729.543725	379.915927	-100.144255	680.268732	333.535918	-160.996679	940.147432	376.932120	-276.924805	895.510429	305.966773	-350.235600	885.851585	216.558729	-268.842282	496.757678	371.421397	-160.707486	542.388026	165.471610	-173.244544	514.394147	185.151525	-82.520911	745.882731	107.655539	-267.389407	948.729033	 76.534194	-233.186483	938.640380	 62.370778	-324.800582	851.707332	1428.669253	-464.916618	864.503520	1427.652013	-70.763088	924.314310	1420.795491	-250.106067	803.969849	1487.105235	-279.803354	799.984381	1297.807265	-21.448906	725.108046	1300.721760	-31.443483	754.574076	1223.855328	  5.244174	715.979091	1165.588738	 27.545685	676.041065	1150.265027	-44.185994	767.655577	1308.536421	-518.290867	691.029019	1284.829726	-507.890782	739.628972	1223.191174	-528.444552	672.976862	1168.731648	-548.638451	635.778569	1178.588864	-470.325394	809.299115	1082.805924	 -0.325534	882.792197	1015.730278	-71.255726	849.502037	968.028582	-30.820990	771.138330	1088.878893	-518.823766	865.015623	1071.245560	-439.209792	844.783255	1012.905908	-471.022275	
